<svg width="25" height="26" viewBox="0 0 25 26" fill="none" xmlns="http://www.w3.org/2000/svg">
<path d="M11.6251 3.09863C11.7019 2.93109 11.8252 2.78911 11.9803 2.68956C12.1354 2.59002 12.3158 2.53711 12.5001 2.53711C12.6844 2.53711 12.8648 2.59002 13.0199 2.68956C13.1751 2.78911 13.2983 2.93109 13.3751 3.09863L15.9376 8.65613C16.0068 8.80503 16.113 8.93373 16.2461 9.03C16.3791 9.12627 16.5345 9.1869 16.6976 9.20613L22.7751 9.92863C22.9572 9.9507 23.1292 10.0243 23.2708 10.1409C23.4124 10.2574 23.5178 10.412 23.5746 10.5864C23.6313 10.7608 23.637 10.9478 23.5911 11.1254C23.5451 11.3029 23.4494 11.4637 23.3151 11.5886L18.8201 15.7486C18.6996 15.8603 18.6097 16.0009 18.559 16.1571C18.5082 16.3134 18.4983 16.48 18.5301 16.6411L19.7226 22.6436C19.7582 22.8238 19.7415 23.0103 19.6745 23.1813C19.6075 23.3523 19.4931 23.5005 19.3446 23.6086C19.1961 23.7166 19.0198 23.7799 18.8365 23.791C18.6532 23.802 18.4705 23.7605 18.3101 23.6711L12.9701 20.6786C12.8265 20.5983 12.6647 20.5561 12.5001 20.5561C12.3355 20.5561 12.1737 20.5983 12.0301 20.6786L6.6901 23.6686C6.52987 23.7577 6.34753 23.7992 6.16453 23.7882C5.98153 23.7771 5.80548 23.7141 5.6571 23.6064C5.50872 23.4987 5.39418 23.3509 5.32695 23.1804C5.25972 23.0098 5.2426 22.8236 5.2776 22.6436L6.4701 16.6386C6.50194 16.4775 6.492 16.3109 6.44124 16.1546C6.39048 15.9984 6.30058 15.8578 6.1801 15.7461L1.6851 11.5886C1.55085 11.4637 1.45511 11.3029 1.40914 11.1254C1.36317 10.9478 1.36889 10.7608 1.42563 10.5864C1.48237 10.412 1.58776 10.2574 1.7294 10.1409C1.87103 10.0243 2.04302 9.9507 2.2251 9.92863L8.3026 9.20863C8.46594 9.18916 8.62155 9.12815 8.7546 9.03142C8.88765 8.9347 8.99369 8.80549 9.0626 8.65613L11.6276 3.09613L11.6251 3.09863Z" fill="white"/>
</svg>
