<svg width="25" height="26" viewBox="0 0 25 26" fill="none" xmlns="http://www.w3.org/2000/svg">
<rect y="0.503906" width="25" height="25" rx="12.5" fill="#36393F"/>
<path fill-rule="evenodd" clip-rule="evenodd" d="M9.80597 6.47091C9.88397 6.3929 9.97657 6.33102 10.0785 6.2888C10.1804 6.24658 10.2896 6.22485 10.4 6.22485C10.5103 6.22485 10.6195 6.24658 10.7214 6.2888C10.8234 6.33102 10.916 6.3929 10.994 6.47091L16.934 12.4109C17.012 12.4889 17.0739 12.5815 17.1161 12.6834C17.1583 12.7854 17.18 12.8946 17.18 13.0049C17.18 13.1152 17.1583 13.2245 17.1161 13.3264C17.0739 13.4283 17.012 13.5209 16.934 13.5989L10.994 19.5389C10.9159 19.6169 10.8232 19.6788 10.7212 19.721C10.6193 19.7632 10.51 19.7849 10.3996 19.7848C10.2893 19.7848 10.18 19.763 10.078 19.7207C9.97609 19.6784 9.88347 19.6165 9.80547 19.5384C9.72746 19.4603 9.6656 19.3677 9.62341 19.2657C9.58122 19.1637 9.55952 19.0544 9.55957 18.9441C9.55962 18.8337 9.5814 18.7244 9.62368 18.6225C9.66595 18.5205 9.7279 18.4279 9.80597 18.3499L15.151 13.0049L9.80597 7.65891C9.72796 7.58091 9.66607 7.48831 9.62386 7.38639C9.58164 7.28447 9.55991 7.17523 9.55991 7.06491C9.55991 6.9546 9.58164 6.84536 9.62386 6.74344C9.66607 6.64152 9.72796 6.54892 9.80597 6.47091Z" fill="white"/>
</svg>
