<svg width="11" height="15" viewBox="0 0 11 15" fill="none" xmlns="http://www.w3.org/2000/svg">
<g clip-path="url(#clip0_9_1859)">
<path fill-rule="evenodd" clip-rule="evenodd" d="M5.5 0.503906C3.366 0.503906 1.757 2.07391 1.757 4.60591V6.54391C1.487 6.57391 1.277 6.62791 1.092 6.72191C0.715693 6.91365 0.409744 7.2196 0.218 7.59591C0 8.02391 0 8.58391 0 9.70391V11.3039C0 12.4239 0 12.9839 0.218 13.4119C0.409744 13.7882 0.715693 14.0942 1.092 14.2859C1.52 14.5039 2.08 14.5039 3.2 14.5039H7.8C8.92 14.5039 9.48 14.5039 9.908 14.2859C10.2843 14.0942 10.5903 13.7882 10.782 13.4119C11 12.9839 11 12.4239 11 11.3039V9.70391C11 8.58391 11 8.02391 10.782 7.59591C10.5903 7.2196 10.2843 6.91365 9.908 6.72191C9.6997 6.62264 9.47501 6.56231 9.245 6.54391V4.60591C9.243 2.07291 7.635 0.503906 5.5 0.503906ZM7.986 6.50391V4.60591C7.986 2.79391 6.963 1.87091 5.5 1.87091C4.037 1.87091 3.014 2.79391 3.014 4.60591V6.50391H7.986Z" fill="#D0D0D2"/>
</g>
<defs>
<clipPath id="clip0_9_1859">
<rect width="11" height="14" fill="white" transform="translate(0 0.503906)"/>
</clipPath>
</defs>
</svg>
