<svg width="40" height="36" viewBox="0 0 40 36" fill="none" xmlns="http://www.w3.org/2000/svg">
<g clip-path="url(#clip0_9_2610)">
<path d="M20 0.723633C22.267 0.723633 25.243 1.84863 26.292 2.83363L25.88 3.77063C25.88 3.77063 29.075 3.81263 30.722 4.87263C32.369 5.93263 33.12 6.65263 33.932 8.36463C34.744 8.40263 37.789 9.69463 39.552 10.9946C39.552 10.9946 41.035 16.6026 38.228 19.0246L40 21.4546C39.553 22.9866 37.623 24.5426 35.704 24.7276C34.841 25.7736 36.515 27.8506 36.515 27.8506C35.806 30.0986 31.035 32.0236 28.185 32.0236L28.578 33.6206C28.578 33.6206 25.943 35.6656 20 35.7236C14.057 35.6656 11.422 33.6216 11.422 33.6216L11.815 32.0246C8.965 32.0246 4.194 30.0996 3.485 27.8516C3.485 27.8516 5.159 25.7746 4.295 24.7286C2.378 24.5436 0.448 22.9876 0 21.4556L1.772 19.0236C-1.035 16.6036 0.447 10.9936 0.447 10.9936C2.211 9.69463 5.257 8.40363 6.069 8.36363C6.879 6.65363 7.631 5.93263 9.278 4.87263C10.925 3.81263 14.12 3.77063 14.12 3.77063L13.708 2.83363C14.758 1.84863 17.733 0.723633 20 0.723633Z" fill="white"/>
<path d="M19.991 24.9358C19.994 24.9338 20.001 24.9488 20.001 24.9488C20.001 24.9488 20.006 24.9338 20.009 24.9358C20.444 24.5138 21.121 24.3118 21.829 24.3138C21.889 24.3138 21.949 24.3158 22.009 24.3178C22.081 24.3218 22.279 24.3248 22.462 24.3278C22.603 24.3288 22.77 24.3318 22.831 24.3338C23.631 24.3278 24.421 23.6538 24.421 22.4038C24.421 20.2768 24.559 16.7078 24.631 14.8768C24.631 14.8768 24.681 14.3548 24.732 14.0808C24.7494 13.987 24.7691 13.8936 24.791 13.8008H15.209C15.229 13.8868 15.249 13.9828 15.268 14.0808C15.318 14.3548 15.37 14.8768 15.37 14.8768C15.44 16.7078 15.579 20.2768 15.579 22.4028C15.579 23.6528 16.369 24.3278 17.169 24.3328L17.539 24.3268C17.722 24.3248 17.919 24.3218 17.991 24.3178C18.051 24.3158 18.111 24.3138 18.171 24.3138C18.879 24.3118 19.556 24.5138 19.991 24.9358Z" fill="#FFDD2D"/>
<path d="M14.446 5.76746C12.179 5.19046 10.469 5.98046 8.98996 7.06746C7.50796 8.15746 6.92296 9.56846 7.05296 10.0745C5.84096 9.57846 3.17896 11.1165 1.91296 11.8545C1.91296 11.8545 0.932962 16.6465 3.43796 18.5015C3.30796 19.8035 2.38896 21.3655 1.91296 21.6585C2.73896 22.9605 4.48896 23.3165 5.23096 22.9865C6.46996 24.7005 5.87096 27.0245 5.18296 27.7655C7.10796 29.5035 11.703 30.2325 13.049 30.3405C13.049 30.3405 11.865 27.5655 11.336 25.2785C9.87396 18.9585 10.66 11.0725 10.66 11.0725C10.66 11.0725 7.24496 15.0455 9.14996 24.6235C9.46996 26.2405 9.92496 27.9505 9.92496 27.9505C9.60796 27.7935 8.83496 27.8885 7.41396 27.1705C8.02296 26.5145 7.76096 22.6275 5.96696 20.7205C5.96696 20.7205 5.11396 21.1145 4.48696 20.8535C4.90896 20.5955 5.43496 18.9435 5.43496 17.6795C3.40696 16.4675 3.62196 14.2775 3.72196 13.1255C4.71796 12.4795 6.50196 11.3815 8.74796 12.3405C8.68896 11.7965 8.84296 10.3505 9.45896 9.33646C9.45896 9.33646 10.209 8.03146 11.903 7.62246C13.598 7.21346 14.446 5.76746 14.446 5.76746ZM25.554 5.76746C27.822 5.19046 29.531 5.98046 31.01 7.06746C32.492 8.15746 33.077 9.56846 32.947 10.0745C34.159 9.57846 36.821 11.1165 38.087 11.8545C38.087 11.8545 39.067 16.6465 36.562 18.5015C36.692 19.8035 37.611 21.3655 38.087 21.6585C37.261 22.9605 35.511 23.3165 34.769 22.9865C33.53 24.7005 34.129 27.0245 34.818 27.7655C32.892 29.5035 28.297 30.2325 26.951 30.3405C26.951 30.3405 28.136 27.5655 28.665 25.2785C30.127 18.9585 29.34 11.0725 29.34 11.0725C29.34 11.0725 32.755 15.0455 30.851 24.6245C30.6227 25.7403 30.3639 26.8498 30.075 27.9515C30.392 27.7945 31.165 27.8895 32.586 27.1715C31.977 26.5155 32.239 22.6285 34.033 20.7215C34.033 20.7215 34.886 21.1155 35.513 20.8545C35.091 20.5965 34.565 18.9445 34.565 17.6805C36.593 16.4685 36.378 14.2785 36.278 13.1265C35.282 12.4805 33.498 11.3825 31.252 12.3415C31.311 11.7975 31.157 10.3515 30.541 9.33746C30.541 9.33746 29.791 8.03246 28.097 7.62346C26.402 7.21446 25.554 5.76746 25.554 5.76746Z" fill="#333333"/>
<path fill-rule="evenodd" clip-rule="evenodd" d="M12.36 11.9189H27.64C27.521 12.0839 27.04 12.8849 26.868 13.3479C26.695 13.8109 26.568 14.2789 26.562 14.5679C26.557 14.7959 26.529 15.5039 26.493 16.4299V16.4399C26.421 18.2759 26.315 20.9769 26.285 22.5719C26.272 23.2759 26.115 24.2089 25.55 24.9719C24.975 25.7479 24.004 26.3119 22.443 26.3119H21.345C21.2587 26.3087 21.1736 26.3328 21.102 26.3809C21.0283 26.436 20.967 26.5058 20.922 26.5859C20.863 26.6829 20.802 26.8179 20.745 26.9459C20.693 27.0619 20.635 27.1929 20.565 27.3109C20.5076 27.3923 20.4381 27.4645 20.359 27.5249C20.2518 27.5908 20.1278 27.6242 20.002 27.6209H19.998C19.8719 27.6244 19.7475 27.591 19.64 27.5249C19.5609 27.4645 19.4914 27.3923 19.434 27.3109C19.365 27.1929 19.307 27.0619 19.255 26.9459C19.2028 26.8225 19.1433 26.7023 19.077 26.5859C19.0319 26.5058 18.9706 26.436 18.897 26.3809C18.8256 26.333 18.7409 26.3089 18.655 26.3119H17.557C15.996 26.3119 15.025 25.7479 14.45 24.9719C13.885 24.2089 13.728 23.2759 13.715 22.5719C13.685 20.9769 13.579 18.2759 13.507 16.4399V16.4299C13.471 15.5039 13.443 14.7959 13.438 14.5669C13.432 14.2789 13.305 13.8109 13.132 13.3469C12.96 12.8849 12.479 12.0839 12.36 11.9189ZM20 24.9449C20.467 24.4849 21.218 24.2829 21.987 24.3189C22.059 24.3219 22.257 24.3249 22.44 24.3279L22.775 24.3339C23.593 24.3589 24.421 23.6819 24.421 22.4039C24.421 20.2769 24.559 16.7089 24.631 14.8769C24.631 14.8769 24.681 14.3549 24.732 14.0809C24.75 13.9829 24.77 13.8879 24.791 13.8009H15.209C15.229 13.8879 15.249 13.9829 15.268 14.0809C15.318 14.3549 15.37 14.8769 15.37 14.8769C15.44 16.7089 15.579 20.2769 15.579 22.4039C15.579 23.6819 16.407 24.3589 17.225 24.3339L17.56 24.3279C17.743 24.3249 17.941 24.3219 18.013 24.3179C18.783 24.2829 19.533 24.4859 20 24.9449Z" fill="#333333"/>
<path fill-rule="evenodd" clip-rule="evenodd" d="M12.36 11.9183H27.64C27.521 12.0833 27.04 12.8842 26.868 13.3472C26.695 13.8103 26.568 14.2783 26.562 14.5673C26.557 14.7952 26.529 15.5033 26.493 16.4293V16.4392C26.421 18.2752 26.315 20.9762 26.285 22.5712C26.272 23.2752 26.115 24.2082 25.55 24.9712C24.975 25.7472 24.004 26.3112 22.443 26.3112H21.345C21.2587 26.308 21.1736 26.3321 21.102 26.3802C21.0283 26.4353 20.967 26.5051 20.922 26.5852C20.863 26.6822 20.802 26.8172 20.745 26.9452C20.693 27.0612 20.635 27.1922 20.565 27.3102C20.5076 27.3916 20.4381 27.4638 20.359 27.5243C20.2511 27.5901 20.1264 27.6235 20 27.6202C19.8732 27.6237 19.7482 27.5903 19.64 27.5243C19.5609 27.4638 19.4914 27.3916 19.434 27.3102C19.365 27.1922 19.307 27.0612 19.255 26.9452C19.2028 26.8219 19.1433 26.7016 19.077 26.5852C19.0319 26.5051 18.9706 26.4353 18.897 26.3802C18.8256 26.3323 18.7409 26.3082 18.655 26.3112H17.557C15.996 26.3112 15.025 25.7472 14.45 24.9712C13.885 24.2082 13.728 23.2752 13.715 22.5712C13.685 20.9762 13.579 18.2752 13.507 16.4392V16.4293C13.471 15.5033 13.443 14.7953 13.438 14.5663C13.432 14.2783 13.305 13.8103 13.132 13.3463C12.96 12.8843 12.479 12.0833 12.36 11.9183ZM20 24.9443C20.467 24.4843 21.218 24.2822 21.987 24.3182C22.059 24.3212 22.257 24.3242 22.44 24.3272L22.775 24.3333C23.593 24.3582 24.421 23.6812 24.421 22.4032C24.421 20.2762 24.559 16.7083 24.631 14.8763C24.631 14.8763 24.681 14.3543 24.732 14.0803C24.75 13.9823 24.77 13.8872 24.791 13.8003H15.209C15.229 13.8872 15.249 13.9823 15.268 14.0803C15.318 14.3543 15.37 14.8763 15.37 14.8763C15.44 16.7083 15.579 20.2762 15.579 22.4032C15.579 23.6812 16.407 24.3582 17.225 24.3333L17.56 24.3272C17.743 24.3242 17.941 24.3212 18.013 24.3172C18.783 24.2822 19.533 24.4853 20 24.9443ZM15.746 3.44325L20 2.15625L24.254 3.44125L23.606 9.88725C23.606 9.88725 21.606 9.48425 20 9.46025C18.394 9.48425 16.394 9.88725 16.394 9.88725L15.746 3.44125V3.44325ZM20 7.61925C20.872 7.61925 21.888 7.76125 21.888 7.76125L22.154 4.70725L20 4.12325L17.846 4.70725L18.112 7.76125C18.112 7.76125 19.128 7.61825 20 7.61925ZM15.357 28.1552C15.357 28.1552 17.927 28.8953 20 28.8953C22.073 28.8953 24.644 28.1552 24.644 28.1552L26.169 32.7872C26.169 32.7872 23.773 33.9102 20 33.9542C16.227 33.9102 13.832 32.7872 13.832 32.7872L15.357 28.1552ZM15.909 31.6952C16.629 31.9872 17.853 32.4002 20.001 32.4093C22.15 32.4002 23.371 31.9872 24.092 31.6952L23.539 30.0173C22.539 30.3092 21.369 30.5642 20 30.5752C18.63 30.5642 17.463 30.3092 16.462 30.0173L15.909 31.6952Z" fill="#333333"/>
<path d="M18.697 21.6821H21.303C21.061 21.3931 20.898 20.8681 20.898 20.2691V18.2651H21.551H21.497C22.048 18.2651 22.53 18.4681 22.795 18.7671V16.8291H17.205V18.7671C17.47 18.4671 17.952 18.2651 18.503 18.2651H18.449H19.102V20.2691C19.102 20.8691 18.939 21.3931 18.697 21.6821Z" fill="#333333"/>
<path fill-rule="evenodd" clip-rule="evenodd" d="M20 21.6821H21.303C21.061 21.3931 20.898 20.8681 20.898 20.2691V18.2651H21.551H21.497C22.048 18.2651 22.53 18.4681 22.795 18.7671V16.8291H20V21.6821Z" fill="#333333"/>
</g>
<defs>
<clipPath id="clip0_9_2610">
<rect width="40" height="35" fill="white" transform="translate(0 0.723633)"/>
</clipPath>
</defs>
</svg>
