<svg width="31" height="31" viewBox="0 0 31 31" fill="none" xmlns="http://www.w3.org/2000/svg">
<path fill-rule="evenodd" clip-rule="evenodd" d="M9.68716 12.0654C9.68716 10.5236 10.2996 9.04497 11.3899 7.95475C12.4801 6.86453 13.9587 6.25204 15.5006 6.25204C17.0424 6.25204 18.521 6.86453 19.6113 7.95475C20.7015 9.04497 21.314 10.5236 21.314 12.0654V18.2142C21.3139 18.4252 21.3694 18.6325 21.475 18.8151C21.5805 18.9978 21.7323 19.1494 21.9152 19.2546L24.0668 20.493C24.233 20.5875 24.3632 20.7344 24.437 20.9107C24.5108 21.087 24.524 21.2828 24.4746 21.4675C24.4252 21.6522 24.316 21.8152 24.164 21.9312C24.012 22.0471 23.8259 22.1094 23.6348 22.1082H7.36396C7.17332 22.1084 6.98797 22.0456 6.83671 21.9295C6.68546 21.8135 6.57675 21.6508 6.5275 21.4666C6.47824 21.2824 6.49119 21.0872 6.56433 20.9111C6.63747 20.7351 6.7667 20.5881 6.93196 20.493L9.08476 19.2546C9.2678 19.1495 9.41988 18.998 9.52564 18.8153C9.63141 18.6327 9.68712 18.4253 9.68716 18.2142V12.0654ZM15.5 3.85384C13.3218 3.85384 11.2328 4.71912 9.69263 6.25932C8.15243 7.79952 7.28716 9.88847 7.28716 12.0666V17.5218L5.73556 18.4134C5.11187 18.772 4.62404 19.3264 4.34786 19.9907C4.07168 20.655 4.02261 21.3919 4.20827 22.0869C4.39393 22.7819 4.80393 23.3962 5.37457 23.8343C5.94522 24.2723 6.64456 24.5097 7.36396 24.5094H11.4896C11.9312 26.2062 13.1756 27.8538 15.5 27.8538C17.8244 27.8538 19.0688 26.2062 19.5104 24.5082H23.636C24.3559 24.5095 25.056 24.2727 25.6273 23.8347C26.1987 23.3967 26.6092 22.7821 26.795 22.0866C26.9808 21.3911 26.9314 20.6537 26.6546 19.9891C26.3778 19.3246 25.889 18.7702 25.2644 18.4122L23.714 17.5206V12.0654C23.7138 10.9869 23.5012 9.919 23.0883 8.92263C22.6755 7.92627 22.0704 7.02099 21.3076 6.25847C20.5449 5.49595 19.6394 4.89113 18.643 4.47855C17.6465 4.06596 16.5785 3.85369 15.5 3.85384Z" fill="#D0D0D2"/>
</svg>
