<svg width="18" height="22" viewBox="0 0 18 22" fill="none" xmlns="http://www.w3.org/2000/svg">
<g clip-path="url(#clip0_9_1829)">
<path d="M0.530053 5.60591C0.530053 3.07291 2.13805 1.50391 4.27205 1.50391C6.40605 1.50391 8.01505 3.07391 8.01605 5.60591V8.18291H6.75905V5.60591C6.75905 3.79391 5.73605 2.87091 4.27305 2.87091C2.81005 2.87091 1.78705 3.79391 1.78705 5.60591V8.18291H0.529053L0.530053 5.60591Z" fill="#D0D0D2"/>
</g>
<g clip-path="url(#clip1_9_1829)">
<path d="M14 7.50391H7C5.89543 7.50391 5 8.39934 5 9.50391V13.5039C5 14.6085 5.89543 15.5039 7 15.5039H14C15.1046 15.5039 16 14.6085 16 13.5039V9.50391C16 8.39934 15.1046 7.50391 14 7.50391Z" fill="#D0D0D2"/>
</g>
<defs>
<clipPath id="clip0_9_1829">
<rect width="9" height="7" fill="white" transform="translate(0 1.50391)"/>
</clipPath>
<clipPath id="clip1_9_1829">
<rect width="11" height="8" fill="white" transform="translate(5 7.50391)"/>
</clipPath>
</defs>
</svg>
