<svg width="15" height="13" viewBox="0 0 15 13" fill="none" xmlns="http://www.w3.org/2000/svg">
<g clip-path="url(#clip0_9_2143)">
<path d="M8.89 0.694132C8.76637 0.572537 8.59991 0.504395 8.4265 0.504395C8.25309 0.504395 8.08663 0.572537 7.963 0.694132C7.90232 0.753872 7.85413 0.825087 7.82123 0.903631C7.78834 0.982175 7.7714 1.06648 7.7714 1.15163C7.7714 1.23679 7.78834 1.32109 7.82123 1.39963C7.85413 1.47818 7.90232 1.54939 7.963 1.60913L12.263 5.85613H1.154C1.06851 5.85574 0.983778 5.87218 0.904644 5.90454C0.82551 5.93689 0.753522 5.98451 0.692793 6.04468C0.632063 6.10485 0.58378 6.1764 0.550701 6.25523C0.517621 6.33406 0.500393 6.41864 0.5 6.50413C0.5 6.86113 0.793 7.15113 1.155 7.15113H12.262L7.962 11.3991C7.90132 11.4589 7.85313 11.5301 7.82023 11.6086C7.78734 11.6872 7.7704 11.7715 7.7704 11.8566C7.7704 11.9418 7.78734 12.0261 7.82023 12.1046C7.85313 12.1832 7.90132 12.2544 7.962 12.3141C8.219 12.5671 8.634 12.5671 8.89 12.3141L14.308 6.96213C14.3688 6.90238 14.4172 6.8311 14.4501 6.75246C14.4831 6.67383 14.5001 6.58941 14.5001 6.50413C14.5001 6.41886 14.4831 6.33444 14.4501 6.2558C14.4172 6.17717 14.3688 6.10589 14.308 6.04613L8.89 0.694132Z" fill="#D0D0D2"/>
</g>
<defs>
<clipPath id="clip0_9_2143">
<rect width="14" height="12" fill="white" transform="translate(0.5 0.503906)"/>
</clipPath>
</defs>
</svg>
