<svg width="31" height="31" viewBox="0 0 31 31" fill="none" xmlns="http://www.w3.org/2000/svg">
<path fill-rule="evenodd" clip-rule="evenodd" d="M6.49996 14.3038C6.49996 12.2352 7.32175 10.2512 8.78453 8.78841C10.2473 7.32563 12.2313 6.50384 14.3 6.50384C16.3687 6.50384 18.3526 7.32563 19.8154 8.78841C21.2782 10.2512 22.1 12.2352 22.1 14.3038C22.1 16.3725 21.2782 18.3565 19.8154 19.8193C18.3526 21.2821 16.3687 22.1038 14.3 22.1038C12.2313 22.1038 10.2473 21.2821 8.78453 19.8193C7.32175 18.3565 6.49996 16.3725 6.49996 14.3038ZM14.3 4.10384C12.6735 4.10398 11.0706 4.49308 9.62507 5.23868C8.17954 5.98427 6.93327 7.06474 5.99025 8.38995C5.04722 9.71515 4.43477 11.2467 4.20401 12.8567C3.97325 14.4667 4.13086 16.1086 4.6637 17.6453C5.19653 19.1821 6.08914 20.5691 7.26705 21.6907C8.44496 22.8123 9.87401 23.636 11.435 24.093C12.9959 24.55 14.6436 24.627 16.2404 24.3177C17.8372 24.0085 19.3369 23.3218 20.6144 22.315L25.28 26.9806C25.3907 27.0953 25.5231 27.1867 25.6695 27.2496C25.8159 27.3125 25.9733 27.3456 26.1327 27.3469C26.292 27.3483 26.45 27.318 26.5975 27.2576C26.745 27.1973 26.879 27.1082 26.9916 26.9955C27.1043 26.8828 27.1934 26.7489 27.2537 26.6014C27.3141 26.4539 27.3444 26.2959 27.3431 26.1366C27.3417 25.9772 27.3086 25.8198 27.2457 25.6734C27.1828 25.527 27.0914 25.3945 26.9768 25.2838L22.3112 20.6182C23.4968 19.1142 24.235 17.3067 24.4413 15.4027C24.6476 13.4987 24.3137 11.5751 23.4778 9.85196C22.6419 8.12884 21.3378 6.67587 19.7147 5.65932C18.0916 4.64277 16.2151 4.10372 14.3 4.10384Z" fill="#D0D0D2"/>
</svg>
