<svg width="11" height="11" viewBox="0 0 11 11" fill="none" xmlns="http://www.w3.org/2000/svg">
<g clip-path="url(#clip0_9_2299)">
<path d="M4.98002 1.67383C5.01073 1.60681 5.06004 1.55002 5.12209 1.5102C5.18413 1.47038 5.2563 1.44922 5.33002 1.44922C5.40374 1.44922 5.47591 1.47038 5.53796 1.5102C5.6 1.55002 5.64931 1.60681 5.68002 1.67383L6.70502 3.89683C6.73272 3.95639 6.77519 4.00787 6.8284 4.04637C6.88161 4.08488 6.94379 4.10913 7.00902 4.11683L9.44002 4.40583C9.51285 4.41466 9.58165 4.44411 9.6383 4.49072C9.69496 4.53734 9.73711 4.59917 9.75981 4.66893C9.78251 4.7387 9.78479 4.8135 9.76641 4.88452C9.74802 4.95555 9.70972 5.01984 9.65602 5.06983L7.85802 6.73383C7.80983 6.77849 7.77387 6.83474 7.75356 6.89723C7.73326 6.95972 7.72929 7.02637 7.74202 7.09083L8.21902 9.49183C8.23326 9.56389 8.22659 9.63851 8.19979 9.7069C8.173 9.77529 8.1272 9.83459 8.0678 9.8778C8.0084 9.92101 7.93789 9.94632 7.86457 9.95076C7.79125 9.95519 7.71819 9.93856 7.65402 9.90283L5.51802 8.70583C5.46058 8.67368 5.39585 8.65681 5.33002 8.65681C5.26419 8.65681 5.19947 8.67368 5.14202 8.70583L3.00602 9.90183C2.94193 9.93746 2.86899 9.95405 2.79579 9.94964C2.72259 9.94523 2.65217 9.92001 2.59282 9.87694C2.53347 9.83387 2.48765 9.77475 2.46076 9.70652C2.43387 9.6383 2.42702 9.56381 2.44102 9.49183L2.91802 7.08983C2.93076 7.02537 2.92678 6.95872 2.90648 6.89623C2.88617 6.83374 2.85021 6.77749 2.80202 6.73283L1.00402 5.06983C0.950322 5.01984 0.912023 4.95555 0.893636 4.88452C0.875248 4.8135 0.877537 4.7387 0.900232 4.66893C0.922927 4.59917 0.965084 4.53734 1.02174 4.49072C1.07839 4.44411 1.14719 4.41466 1.22002 4.40583L3.65102 4.11783C3.71635 4.11004 3.7786 4.08563 3.83182 4.04694C3.88504 4.00826 3.92746 3.95657 3.95502 3.89683L4.98102 1.67283L4.98002 1.67383Z" fill="white"/>
</g>
<defs>
<clipPath id="clip0_9_2299">
<rect width="10" height="10" fill="white" transform="translate(0.330078 0.723633)"/>
</clipPath>
</defs>
</svg>
