<svg width="50" height="51" viewBox="0 0 50 51" fill="none" xmlns="http://www.w3.org/2000/svg">
<g clip-path="url(#clip0_9_2592)">
<path fill-rule="evenodd" clip-rule="evenodd" d="M10.675 23.9767C18.419 20.6027 23.582 18.3787 26.165 17.3037C33.542 14.2357 35.075 13.7037 36.074 13.6857C36.294 13.6817 36.785 13.7357 37.104 13.9937C37.372 14.2117 37.446 14.5067 37.481 14.7137C37.517 14.9197 37.561 15.3907 37.526 15.7587C37.126 19.9587 35.396 30.1517 34.516 34.8557C34.144 36.8457 33.411 37.5137 32.701 37.5787C31.159 37.7207 29.987 36.5587 28.493 35.5797C26.156 34.0477 24.835 33.0937 22.566 31.5987C19.943 29.8697 21.643 28.9207 23.138 27.3687C23.528 26.9617 30.325 20.7797 30.457 20.2187C30.473 20.1487 30.488 19.8887 30.333 19.7497C30.178 19.6117 29.949 19.6597 29.783 19.6967C29.549 19.7497 25.814 22.2177 18.579 27.1017C17.519 27.8297 16.559 28.1847 15.699 28.1657C14.75 28.1457 12.926 27.6297 11.569 27.1887C9.90599 26.6487 8.58399 26.3617 8.69899 25.4437C8.75899 24.9657 9.41799 24.4767 10.675 23.9767Z" fill="white"/>
</g>
<defs>
<clipPath id="clip0_9_2592">
<rect width="30" height="25" fill="white" transform="translate(8 13.2236)"/>
</clipPath>
</defs>
</svg>
