<svg width="35" height="21" viewBox="0 0 35 21" fill="none" xmlns="http://www.w3.org/2000/svg">
<rect x="0.25" y="0.723633" width="34" height="20" rx="5" fill="#36393F"/>
<g clip-path="url(#clip0_9_2318)">
<g clip-path="url(#clip1_9_2318)">
<path d="M9.25 12.7236C10.3546 12.7236 11.25 11.8282 11.25 10.7236C11.25 9.61906 10.3546 8.72363 9.25 8.72363C8.14543 8.72363 7.25 9.61906 7.25 10.7236C7.25 11.8282 8.14543 12.7236 9.25 12.7236Z" fill="#888A8D"/>
<path d="M17.25 12.7236C18.3546 12.7236 19.25 11.8282 19.25 10.7236C19.25 9.61906 18.3546 8.72363 17.25 8.72363C16.1454 8.72363 15.25 9.61906 15.25 10.7236C15.25 11.8282 16.1454 12.7236 17.25 12.7236Z" fill="#888A8D"/>
<path d="M25.25 12.7236C26.3546 12.7236 27.25 11.8282 27.25 10.7236C27.25 9.61906 26.3546 8.72363 25.25 8.72363C24.1454 8.72363 23.25 9.61906 23.25 10.7236C23.25 11.8282 24.1454 12.7236 25.25 12.7236Z" fill="#888A8D"/>
</g>
</g>
<defs>
<clipPath id="clip0_9_2318">
<rect width="34" height="20" fill="white" transform="translate(0.25 0.723633)"/>
</clipPath>
<clipPath id="clip1_9_2318">
<rect width="34" height="20" fill="white" transform="translate(0.25 0.723633)"/>
</clipPath>
</defs>
</svg>
