<svg width="14" height="21" viewBox="0 0 14 21" fill="none" xmlns="http://www.w3.org/2000/svg">
<g clip-path="url(#clip0_9_2629)">
<path fill-rule="evenodd" clip-rule="evenodd" d="M7.59522 0.853647C7.55033 0.80583 7.49612 0.767718 7.43593 0.741665C7.37573 0.715613 7.31084 0.702171 7.24525 0.702171C7.17966 0.702171 7.11476 0.715613 7.05457 0.741665C6.99438 0.767718 6.94017 0.80583 6.89528 0.853647L1.24756 6.87429C1.18378 6.94279 1.14143 7.02843 1.12571 7.12069C1.10999 7.21295 1.1216 7.30778 1.15911 7.39353C1.19661 7.47927 1.25838 7.55218 1.33679 7.60328C1.41521 7.65438 1.50686 7.68143 1.60047 7.68112H5.3413L3.05563 13.6112C3.02757 13.6838 3.01761 13.7622 3.02661 13.8396C3.03562 13.9169 3.06332 13.9909 3.10733 14.0552C3.15133 14.1194 3.21032 14.172 3.27919 14.2084C3.34806 14.2448 3.42476 14.2638 3.50265 14.264H5.04133C5.1225 14.264 5.18014 14.3416 5.15661 14.4192L3.54264 19.6801C3.38736 20.1858 4.04495 20.5339 4.37551 20.1199L10.8279 12.0516C10.8838 11.9813 10.9189 11.8967 10.9291 11.8074C10.9393 11.7182 10.9243 11.6278 10.8857 11.5467C10.8471 11.4656 10.7864 11.3969 10.7107 11.3485C10.635 11.3001 10.5472 11.274 10.4573 11.273L8.01518 11.2472C7.99591 11.2469 7.977 11.242 7.96003 11.2329C7.94306 11.2237 7.92854 11.2107 7.91769 11.1947C7.90685 11.1788 7.89999 11.1605 7.89772 11.1414C7.89544 11.1223 7.8978 11.1029 7.9046 11.0849L9.19036 7.68112H12.89C12.9836 7.68096 13.075 7.65348 13.1531 7.60206C13.2313 7.55063 13.2926 7.47751 13.3298 7.39167C13.3669 7.30584 13.3781 7.21103 13.362 7.1189C13.346 7.02678 13.3034 6.94135 13.2394 6.87311L7.59522 0.853647Z" fill="#F5F5F5"/>
</g>
<defs>
<clipPath id="clip0_9_2629">
<rect width="12.94" height="20" fill="white" transform="translate(0.530029 0.503845)"/>
</clipPath>
</defs>
</svg>
