<svg width="30" height="31" viewBox="0 0 30 31" fill="none" xmlns="http://www.w3.org/2000/svg">
<path fill-rule="evenodd" clip-rule="evenodd" d="M14.9999 5.30385C12.9931 5.30383 11.0308 5.89581 9.35882 7.00566C7.68682 8.11552 6.37936 9.69394 5.60013 11.5433C4.8209 13.3927 4.60453 15.4308 4.9781 17.4026C5.35167 19.3743 6.29859 21.1921 7.7003 22.6282C7.9523 22.3546 8.2583 22.0594 8.6243 21.7666C9.9479 20.7082 12.0095 19.7038 14.9999 19.7038C17.9903 19.7038 20.0519 20.7082 21.3743 21.7678C21.7415 22.0606 22.0475 22.3546 22.2995 22.6282C23.7012 21.1921 24.6481 19.3743 25.0217 17.4026C25.3953 15.4308 25.1789 13.3927 24.3997 11.5433C23.6204 9.69394 22.313 8.11552 20.641 7.00566C18.969 5.89581 17.0067 5.30383 14.9999 5.30385ZM14.9999 25.7038C13.0793 25.7069 11.1973 25.1652 9.5723 24.1414C9.7283 23.9818 9.9107 23.8114 10.1243 23.641C11.0519 22.8994 12.5915 22.1038 14.9999 22.1038C17.4083 22.1038 18.9479 22.8994 19.8755 23.6398C20.0891 23.8114 20.2715 23.9818 20.4275 24.1414C18.8025 25.1652 16.9205 25.7069 14.9999 25.7038ZM2.3999 15.5038C2.3999 8.54505 8.0411 2.90385 14.9999 2.90385C21.9587 2.90385 27.5999 8.54505 27.5999 15.5038C27.5999 22.4626 21.9587 28.1038 14.9999 28.1038C8.0411 28.1038 2.3999 22.4626 2.3999 15.5038ZM12.8999 12.8038C12.8999 12.2469 13.1212 11.7127 13.515 11.3189C13.9088 10.9251 14.4429 10.7038 14.9999 10.7038C15.5569 10.7038 16.091 10.9251 16.4848 11.3189C16.8787 11.7127 17.0999 12.2469 17.0999 12.8038C17.0999 13.3608 16.8787 13.8949 16.4848 14.2888C16.091 14.6826 15.5569 14.9038 14.9999 14.9038C14.4429 14.9038 13.9088 14.6826 13.515 14.2888C13.1212 13.8949 12.8999 13.3608 12.8999 12.8038ZM14.9999 8.30385C13.8064 8.30385 12.6618 8.77795 11.8179 9.62187C10.974 10.4658 10.4999 11.6104 10.4999 12.8038C10.4999 13.9973 10.974 15.1419 11.8179 15.9858C12.6618 16.8297 13.8064 17.3038 14.9999 17.3038C16.1934 17.3038 17.338 16.8297 18.1819 15.9858C19.0258 15.1419 19.4999 13.9973 19.4999 12.8038C19.4999 11.6104 19.0258 10.4658 18.1819 9.62187C17.338 8.77795 16.1934 8.30385 14.9999 8.30385Z" fill="#D0D0D2"/>
</svg>
