<svg width="50" height="51" viewBox="0 0 50 51" fill="none" xmlns="http://www.w3.org/2000/svg">
<path d="M25.3599 35.9204C13.9619 35.9204 7.46192 28.1074 7.19092 15.1084H12.8999C13.0869 24.6494 17.2959 28.6914 20.6289 29.5244V15.1084H26.0039V23.3374C29.2959 22.9834 32.7539 19.2334 33.9209 15.1074H39.2959C38.8562 17.2468 37.9798 19.2724 36.7215 21.0576C35.4632 22.8428 33.85 24.3492 31.9829 25.4824C34.067 26.518 35.9078 27.9838 37.3839 29.7831C38.8599 31.5823 39.9376 33.6741 40.5459 35.9204H34.6299C34.084 33.9693 32.9743 32.2228 31.44 30.8996C29.9057 29.5765 28.0151 28.7356 26.0049 28.4824V35.9204H25.3589H25.3599Z" fill="white"/>
</svg>
